<svg width="21" height="21" viewBox="0 0 21 21" fill="none" xmlns="http://www.w3.org/2000/svg">
<g clip-path="url(#clip0_1253_8403)">
<path d="M10.386 0.976074C13.1947 0.976074 15.5641 1.94014 17.4929 3.86889C19.4329 5.80951 20.4038 8.17857 20.4038 10.9761C20.4038 13.7858 19.451 16.1248 17.546 17.9936C15.5222 19.982 13.1357 20.9761 10.386 20.9761C7.68318 20.9761 5.33818 19.9936 3.35037 18.0292C1.38631 16.0648 0.403809 13.7142 0.403809 10.9761C0.403809 8.23826 1.38631 5.8692 3.35037 3.8692C5.27912 1.94014 7.62381 0.976074 10.386 0.976074ZM10.4216 2.77982C8.14787 2.77982 6.22537 3.57764 4.65381 5.17264C3.02256 6.83951 2.20725 8.7742 2.20725 10.9764C2.20725 13.1908 3.01662 15.1076 4.63537 16.7258C6.25443 18.3451 8.18287 19.1542 10.421 19.1542C12.6469 19.1542 14.5879 18.3395 16.2426 16.7079C17.8141 15.1961 18.5997 13.2854 18.5997 10.9758C18.5997 8.70201 17.8019 6.76795 16.2072 5.17232C14.6122 3.57732 12.6835 2.77982 10.4216 2.77982ZM13.1004 8.49389V12.5829H11.9579V17.4398H8.85037V12.5833H7.70787V8.49389C7.70787 8.31514 7.77037 8.16357 7.89506 8.03857C8.02037 7.91389 8.17225 7.85107 8.35037 7.85107H12.4579C12.6244 7.85107 12.7735 7.91357 12.9041 8.03857C13.0344 8.16357 13.1004 8.31545 13.1004 8.49389ZM9.01068 5.92264C9.01068 4.98264 9.47475 4.51201 10.4038 4.51201C11.3329 4.51201 11.7966 4.98201 11.7966 5.92264C11.7966 6.85107 11.3322 7.31545 10.4038 7.31545C9.47537 7.31545 9.01068 6.85107 9.01068 5.92264Z" fill="#9A9C9F"/>
</g>
<defs>
<clipPath id="clip0_1253_8403">
<rect width="20" height="20" fill="white" transform="translate(0.403809 0.976074)"/>
</clipPath>
</defs>
</svg>
