<svg width="21" height="21" viewBox="0 0 21 21" fill="none" xmlns="http://www.w3.org/2000/svg">
<path d="M10.5729 0.976074C13.3701 0.976074 15.7516 1.95264 17.7157 3.90482C18.6557 4.84514 19.3704 5.91982 19.8585 7.12795C20.3463 8.33639 20.591 9.61889 20.591 10.9761C20.591 12.3451 20.3494 13.6279 19.8679 14.8239C19.3857 16.0201 18.6741 17.077 17.7341 17.9936C16.7582 18.9576 15.651 19.6961 14.4126 20.2079C13.1747 20.7198 11.8947 20.9758 10.5735 20.9758C9.25225 20.9758 7.98725 20.7233 6.77881 20.2167C5.57068 19.7111 4.48725 18.9789 3.52881 18.0208C2.57037 17.0626 1.84131 15.982 1.34131 14.7795C0.841309 13.577 0.591309 12.3095 0.591309 10.9761C0.591309 9.65451 0.844121 8.38389 1.35006 7.16357C1.856 5.94326 2.59131 4.85107 3.55537 3.8867C5.46006 1.9467 7.79912 0.976074 10.5729 0.976074ZM10.6091 2.77982C8.3235 2.77982 6.40068 3.57764 4.841 5.17264C4.05506 5.97045 3.451 6.86607 3.0285 7.86014C2.60537 8.8542 2.39443 9.89295 2.39443 10.9764C2.39443 12.0479 2.60537 13.0808 3.0285 14.0742C3.45131 15.0689 4.05506 15.9558 4.841 16.7354C5.62662 17.5154 6.51318 18.1101 7.50193 18.5214C8.48975 18.932 9.52568 19.1373 10.6091 19.1373C11.6804 19.1373 12.7185 18.9295 13.7257 18.5126C14.7316 18.0954 15.6385 17.4948 16.4485 16.7092C18.0079 15.1854 18.7872 13.2748 18.7872 10.9767C18.7872 9.86951 18.5847 8.82201 18.1801 7.83389C17.776 6.84576 17.1863 5.96514 16.4132 5.19076C14.8051 3.58357 12.871 2.77982 10.6091 2.77982ZM10.4838 9.31576L9.14412 10.0123C9.001 9.71514 8.82568 9.50639 8.61756 9.38732C8.40912 9.26857 8.21568 9.20889 8.03693 9.20889C7.14443 9.20889 6.69756 9.79795 6.69756 10.9767C6.69756 11.5123 6.81068 11.9404 7.03662 12.262C7.26287 12.5836 7.59631 12.7445 8.03693 12.7445C8.62037 12.7445 9.031 12.4586 9.26943 11.8873L10.5013 12.5123C10.2394 13.0008 9.87631 13.3845 9.41193 13.6642C8.94818 13.9442 8.436 14.0839 7.87631 14.0839C6.9835 14.0839 6.26287 13.8104 5.71537 13.2623C5.16787 12.7148 4.89412 11.9529 4.89412 10.977C4.89412 10.0245 5.171 9.26889 5.72443 8.7092C6.27787 8.14982 6.97725 7.86982 7.82287 7.86982C9.06131 7.8692 9.94787 8.35139 10.4838 9.31576ZM16.2516 9.31576L14.9301 10.0123C14.7872 9.71514 14.6113 9.50639 14.4032 9.38732C14.1944 9.26857 13.9947 9.20889 13.8051 9.20889C12.9122 9.20889 12.4654 9.79795 12.4654 10.9767C12.4654 11.5123 12.5788 11.9404 12.8047 12.262C13.0307 12.5836 13.3638 12.7445 13.8051 12.7445C14.3879 12.7445 14.7988 12.4586 15.0366 11.8873L16.2866 12.5123C16.0132 13.0008 15.6438 13.3845 15.1801 13.6642C14.7157 13.9442 14.2097 14.0839 13.6622 14.0839C12.7572 14.0839 12.0344 13.8104 11.4932 13.2623C10.9507 12.7148 10.6801 11.9529 10.6801 10.977C10.6801 10.0245 10.9566 9.26889 11.5107 8.7092C12.0638 8.14982 12.7632 7.86982 13.6085 7.86982C14.8466 7.8692 15.7282 8.35139 16.2516 9.31576Z" fill="#9A9C9F"/>
</svg>
